<svg width="49" height="48" viewBox="0 0 49 48" fill="none" xmlns="http://www.w3.org/2000/svg">
<path d="M24.5 47.9825C37.7548 47.9825 48.5 37.2413 48.5 23.9913C48.5 10.7412 37.7548 0 24.5 0C11.2452 0 0.5 10.7412 0.5 23.9913C0.5 37.2413 11.2452 47.9825 24.5 47.9825Z" fill="#1877F1"/>
<path d="M28.4501 47.6626C28.4501 42.6545 28.4501 36.6666 28.4501 31.6585C28.4501 31.4086 28.4101 31.1587 28.5701 30.9387C30.0301 30.9187 31.4801 30.8688 32.9401 30.8888C33.5801 30.8988 33.9501 30.7388 34.0401 30.0391C34.2701 28.3097 34.5301 26.5903 34.8101 24.861C34.9201 24.1712 34.7501 23.9013 34.0001 23.9313C32.4201 23.9813 31.0601 23.9713 29.2601 23.9713C28.4601 23.9713 28.2701 23.7314 28.3001 22.9816C28.3601 21.7821 28.3001 20.5725 28.3201 19.363C28.3601 17.2037 29.6101 15.8842 31.7901 15.7443C32.6601 15.6843 33.5401 15.6943 34.4101 15.7343C35.0801 15.7643 35.2701 15.5044 35.2601 14.8646C35.2201 13.4551 35.2501 12.0356 35.2501 10.6261C35.2501 10.2363 35.2401 9.83643 34.7301 9.78645C32.0001 9.50655 29.2601 9.05672 26.5601 9.90641C23.4301 10.8861 21.7201 13.1152 21.0701 16.2541C20.9901 16.6639 20.8101 17.4137 20.8201 18.4733C20.8301 19.313 20.8601 23.9213 20.5801 23.9213C18.9601 23.9313 17.3301 23.9813 15.7101 23.9513C15.0001 23.9313 14.7801 24.1412 14.8001 24.861C14.8501 26.5703 14.8401 28.2697 14.8001 29.9791C14.7801 30.6788 14.9901 30.9187 15.7101 30.9087C17.3301 30.8788 18.9601 30.9287 20.5801 30.9487C20.7001 31.1287 20.7001 31.3386 20.7001 31.5485C20.7001 36.6367 20.7001 42.6045 20.7001 47.6926C22.7701 48.0925 26.1201 48.1225 28.4501 47.6626Z" fill="white"/>
</svg>
