<svg width="49" height="48" viewBox="0 0 49 48" fill="none" xmlns="http://www.w3.org/2000/svg">
<path d="M24.5 48C37.7548 48 48.5 37.2548 48.5 24C48.5 10.7452 37.7548 0 24.5 0C11.2452 0 0.5 10.7452 0.5 24C0.5 37.2548 11.2452 48 24.5 48Z" fill="#F9E200"/>
<path d="M24.83 36.0799C23.81 35.9999 22.79 35.9099 21.77 35.8299C21.66 35.8199 21.54 35.8599 21.45 35.9199C18.67 37.6499 15.74 39.0499 12.65 40.1399C12.6 40.1599 12.54 40.1799 12.48 40.1999C12.3 40.2399 12.13 40.2199 12.02 40.0399C11.91 39.8599 11.96 39.6899 12.1 39.5399C12.49 39.1199 12.9 38.7099 13.26 38.2699C14.29 36.9999 14.98 35.5499 15.43 33.9799C15.48 33.8099 15.42 33.7499 15.29 33.6699C13.9 32.8899 12.65 31.9299 11.58 30.7499C9.96005 28.9699 8.89005 26.9199 8.59005 24.5099C8.28005 21.9599 8.85005 19.5999 10.24 17.4399C11.86 14.9099 14.15 13.1899 16.87 11.9899C18.68 11.1899 20.58 10.7199 22.55 10.5299C26.45 10.1699 30.16 10.7899 33.62 12.6599C35.9 13.8899 37.79 15.5699 39.12 17.8199C40.26 19.7599 40.76 21.8699 40.57 24.1099C40.37 26.4699 39.43 28.5199 37.91 30.3199C35.81 32.7999 33.12 34.3399 30.03 35.2499C28.33 35.7499 26.6 35.9899 24.83 36.0799ZM32.36 22.9599C32.34 22.9499 32.31 22.9299 32.29 22.9199C32.29 22.1999 32.29 21.4799 32.29 20.7499C32.29 20.2499 31.96 19.9099 31.5 19.9099C31.04 19.9099 30.71 20.2399 30.71 20.7299C30.71 22.8699 30.71 25.0099 30.71 27.1399C30.71 27.6299 31.06 27.9699 31.52 27.9599C31.97 27.9499 32.28 27.6099 32.29 27.1199C32.29 26.5499 32.29 25.9899 32.29 25.4199C32.29 25.3299 32.31 25.2299 32.36 25.1699C32.54 24.9499 32.74 24.7599 32.95 24.5299C33.04 24.6399 33.09 24.7099 33.14 24.7899C33.81 25.7099 34.48 26.6299 35.15 27.5499C35.3 27.7599 35.48 27.9299 35.75 27.9499C36.09 27.9899 36.36 27.8599 36.53 27.5699C36.71 27.2599 36.68 26.9499 36.47 26.6599C35.73 25.6499 34.99 24.6299 34.24 23.6199C34.12 23.4599 34.13 23.3699 34.27 23.2299C34.92 22.5999 35.56 21.9599 36.19 21.3099C36.32 21.1699 36.43 20.9799 36.47 20.7999C36.54 20.4599 36.36 20.1399 36.06 19.9899C35.75 19.8299 35.38 19.8899 35.12 20.1499C34.37 20.8999 33.61 21.6599 32.86 22.4099C32.69 22.5899 32.52 22.7699 32.36 22.9599ZM18.69 27.9599C18.97 27.9499 19.22 27.7899 19.36 27.4599C19.5 27.1399 19.63 26.8199 19.76 26.4899C19.81 26.3499 19.89 26.3099 20.04 26.3099C20.9 26.3199 21.75 26.3199 22.61 26.3099C22.76 26.3099 22.83 26.3699 22.88 26.4999C23 26.8199 23.13 27.1299 23.27 27.4499C23.4 27.7499 23.62 27.9299 23.95 27.9599C24.57 28.0099 24.96 27.4099 24.71 26.7899C23.84 24.6799 22.96 22.5699 22.09 20.4599C21.95 20.1199 21.71 19.9199 21.34 19.9099C20.98 19.8999 20.73 20.0899 20.57 20.4699C20.21 21.3299 19.86 22.1899 19.5 23.0499C18.98 24.3099 18.45 25.5599 17.93 26.8199C17.69 27.3899 18.04 27.9599 18.69 27.9599ZM16.51 24.4499C16.51 23.5499 16.52 22.6499 16.5 21.7599C16.5 21.5299 16.57 21.4799 16.79 21.4799C17.25 21.4999 17.7 21.4999 18.16 21.4899C18.66 21.4899 19 21.1499 19 20.6899C19 20.2299 18.66 19.9099 18.15 19.9099C16.54 19.9099 14.92 19.9099 13.31 19.9099C12.79 19.9099 12.46 20.2299 12.46 20.7099C12.46 21.1699 12.8 21.4899 13.31 21.4899C13.75 21.4899 14.19 21.4999 14.63 21.4799C14.89 21.4699 14.95 21.5599 14.95 21.7999C14.94 23.5499 14.94 25.2899 14.94 27.0399C14.94 27.1899 14.95 27.3599 15.01 27.4999C15.15 27.8399 15.53 28.0299 15.89 27.9499C16.24 27.8699 16.5 27.5699 16.5 27.1999C16.52 26.2799 16.51 25.3599 16.51 24.4499ZM27.14 26.3799C27.14 26.2299 27.14 26.1199 27.14 26.0199C27.14 24.2899 27.15 22.5599 27.14 20.8299C27.14 20.6399 27.09 20.4299 27 20.2599C26.83 19.9499 26.45 19.8399 26.1 19.9499C25.77 20.0499 25.55 20.3499 25.55 20.7299C25.55 21.8199 25.55 22.9099 25.55 23.9999C25.55 25.0599 25.55 26.1099 25.55 27.1699C25.55 27.6499 25.84 27.9599 26.29 27.9699C27.37 27.9799 28.45 27.9799 29.53 27.9699C29.99 27.9699 30.32 27.6299 30.32 27.1799C30.32 26.7299 29.99 26.3999 29.53 26.3899C29.23 26.3799 28.93 26.3899 28.63 26.3899C28.16 26.3799 27.67 26.3799 27.14 26.3799Z" fill="#3B1E1E"/>
<path d="M22.14 24.7299C21.58 24.7299 21.06 24.7299 20.5 24.7299C20.77 24.0799 21.03 23.4499 21.32 22.7599C21.61 23.4399 21.87 24.0599 22.14 24.7299Z" fill="#3B1E1E"/>
</svg>
