<svg width="49" height="48" viewBox="0 0 49 48" fill="none" xmlns="http://www.w3.org/2000/svg">
<path d="M24.5 48C37.7548 48 48.5 37.2548 48.5 24C48.5 10.7452 37.7548 0 24.5 0C11.2452 0 0.5 10.7452 0.5 24C0.5 37.2548 11.2452 48 24.5 48Z" fill="#01A2F3"/>
<path d="M13.27 34.5399C15.45 34.2599 17.44 33.5199 19.37 32.0399C16.66 31.5999 14.77 30.3399 13.77 27.8099C14.5 27.5699 15.22 27.8999 16.05 27.4799C13.29 26.3499 11.67 24.4699 11.49 21.4299C12.03 21.5699 12.49 21.6799 12.95 21.7899C13.23 21.8399 13.6 22.0599 13.53 21.4699C11.36 18.9899 10.97 16.5799 12.35 13.8599C12.83 14.0399 13.08 14.4799 13.4 14.8099C16.38 17.8999 20.03 19.6099 24.26 20.1899C25 20.2899 25.28 20.1799 25.22 19.3199C25.02 16.5999 26.15 14.5099 28.57 13.2699C30.98 12.0399 33.34 12.3299 35.44 14.0599C35.93 14.4599 36.34 14.4899 36.91 14.3299C37.86 14.0699 38.73 13.5999 39.83 13.1799C39.46 14.5599 38.6 15.3799 37.67 16.2599C38.72 16.3999 39.51 15.8499 40.5 15.7599C40.04 16.7799 39.29 17.4299 38.55 18.0299C37.95 18.5199 37.71 19.0199 37.7 19.8099C37.57 28.4699 31.46 35.6599 22.94 37.1099C18.75 37.8199 14.73 37.1399 11.02 34.9799C11.07 34.3699 11.55 34.67 11.84 34.6299C12.31 34.5599 12.8 34.6999 13.27 34.5399Z" fill="#FEFEFE"/>
</svg>
