<?xml version="1.0" encoding="UTF-8"?>
<svg id="_레이어_2" data-name="레이어 2" xmlns="http://www.w3.org/2000/svg" viewBox="0 0 32.46 33.73">
  <defs>
    <style>
      .cls-1 {
        stroke: #000;
      }

      .cls-1, .cls-2 {
        fill: none;
        stroke-linecap: round;
        stroke-linejoin: round;
      }

      .cls-2 {
        stroke: #84614b;
      }
    </style>
  </defs>
  <g id="_레이어_1-2" data-name="레이어 1">
    <g>
      <ellipse class="cls-1" cx="21.38" cy="3.63" rx="10.44" ry="3.13" transform="translate(-.03 .19) rotate(-.51)"/>
      <path class="cls-1" d="m31.92,15.02h0c0,1.09-1.83,2.06-4.58,2.64-1.09-.52-2.3-.82-3.59-.82-.82,0-1.62.13-2.37.34v-.07c-.02-1.72-4.65-3.07-10.35-3.04l-.04-4.08c.01,1.09,1.87,2.03,4.68,2.57,1.67.31,3.65.49,5.79.47,2.14-.02,4.12-.24,5.77-.57,2.8-.58,4.64-1.56,4.64-2.64l.05,5.21Z"/>
      <path class="cls-1" d="m31.96,20.24c.01.44-.29.86-.82,1.24-.8-1.66-2.14-3.01-3.8-3.82,2.76-.58,4.58-1.56,4.58-2.63l.04,5.21Z"/>
      <path class="cls-1" d="m31.82,3.54l.06,6.26c0,1.09-1.83,2.06-4.63,2.65-1.66.34-3.64.55-5.78.57s-4.13-.16-5.79-.47c-2.81-.54-4.67-1.48-4.68-2.57l-.06-6.26c.02,1.73,4.7,3.09,10.47,3.04s10.43-1.49,10.41-3.22Z"/>
      <path class="cls-1" d="m21.38,17.11v.07c-1.45.44-2.71,1.25-3.7,2.35h-.01c-.92.25-1.96.45-3.11.58-.73.08-1.5.15-2.3.19-.39.01-.78.03-1.18.03h-.11c-5.76.05-10.46-1.3-10.47-3.04-.02-1.73,4.65-3.17,10.41-3.23h.13c5.7-.03,10.32,1.32,10.35,3.04Z"/>
      <path class="cls-1" d="m18.08,30.94c-.39.11-.79.21-1.23.3-1.66.33-3.64.55-5.78.57-2.14.02-4.12-.17-5.78-.47-2.82-.54-4.67-1.48-4.68-2.57l-.05-5.22c.01,1.09,1.87,2.03,4.68,2.57,1.67.31,3.65.49,5.79.47,1.66-.02,3.23-.16,4.61-.37.27,1.85,1.16,3.49,2.44,4.71Z"/>
      <path class="cls-1" d="m19.98,25.23h-.53c.15-.05.27-.11.4-.18.02-.01.05-.02.07-.04l.06.22Z"/>
      <path class="cls-1" d="m15.55,25.03c0,.41.03.8.08,1.2-1.39.21-2.95.34-4.61.37-2.14.02-4.12-.16-5.79-.47-2.81-.54-4.67-1.48-4.68-2.57l-.05-6.26c.01,1.73,4.71,3.09,10.47,3.04h.11c.4,0,.79-.02,1.18-.03.79-.04,1.57-.1,2.3-.19,1.15-.14,2.19-.33,3.11-.57-1.32,1.45-2.12,3.37-2.12,5.49Z"/>
      <g>
        <path class="cls-1" d="m17.67,19.54h.01"/>
        <path class="cls-2" d="m19.98,25.23h-.53c.15-.05.27-.11.4-.18.02-.01.05-.02.07-.04l.06.22Z"/>
        <path class="cls-1" d="m18.08,30.94c1.47,1.42,3.47,2.29,5.67,2.29,4.53,0,8.19-3.66,8.19-8.19,0-1.27-.29-2.47-.8-3.55"/>
        <line class="cls-1" x1="21.4" y1="29.61" x2="21.4" y2="29.6"/>
        <line class="cls-2" x1="28.59" y1="22.23" x2="28.47" y2="22.62"/>
        <g>
          <line class="cls-2" x1="19.92" y1="25.01" x2="19.01" y2="22.23"/>
          <polygon class="cls-2" points="22.82 25.23 21.4 29.6 21.27 29.22 19.98 25.23 22.82 25.23"/>
          <polyline class="cls-2" points="24.78 25.23 26.2 29.6 26.2 29.61"/>
          <path class="cls-2" d="m21.27,29.22l-1.29-3.99h-.53c.15-.05.27-.11.4-.18.02-.01.05-.02.07-.04l.06.22h2.84l.6-1.84.39-1.17.37,1.12.62,1.89h2.84l.85-2.61"/>
          <line class="cls-2" x1="27.62" y1="25.23" x2="26.2" y2="29.6"/>
          <line class="cls-2" x1="24.78" y1="25.23" x2="22.82" y2="25.23"/>
        </g>
        <line class="cls-2" x1="29.28" y1="25.23" x2="27.62" y2="25.23"/>
        <line class="cls-2" x1="19.45" y1="25.23" x2="18.32" y2="25.23"/>
      </g>
    </g>
  </g>
</svg>