<?xml version="1.0" encoding="UTF-8"?>
<svg id="_레이어_2" data-name="레이어 2" xmlns="http://www.w3.org/2000/svg" viewBox="0 0 42.88 39">
  <defs>
    <style>
      .cls-1 {
        stroke-linecap: round;
        stroke-linejoin: round;
      }

      .cls-1, .cls-2 {
        fill: none;
        stroke: #000;
      }

      .cls-3 {
        fill: #84614b;
      }

      .cls-2 {
        stroke-miterlimit: 10;
      }
    </style>
  </defs>
  <g id="_레이어_1-2" data-name="레이어 1">
    <g>
      <path class="cls-3" d="m1,20.54s3.78,3.17,6.01,3.51c1.53.23,2.57.26,3.05-.27.59-.66.53-1.96-.04-2.73-.62-.84-1.56-.65-2-1.51-.36-.69-.1-1.47-.02-1.69.7-2.12,3.59-2,3.89-3.65.13-.73-.34-1.38-.86-2.17-2.04-3.05-2.14-.86-4.01-3.01-1.58-1.81-2-2-4.01-.5"/>
      <path class="cls-3" d="m13.52,33.06s-2-5.01,2.5-8.02c3.92-2.61,6.95-.69,9.21-.14"/>
      <path class="cls-3" d="m28.8,17.27c-.32-1.62,1.26-2.52,2.34-2.95.71-.28,1.45-.3,1.93.2,0,0,.5.52.5,1.4s-.32.72-.32.72"/>
      <path class="cls-3" d="m17.03.5s-5.4.47-3.7,3.74c1.02,1.96,2.08,4.13,2.41,6.34.33,2.2-.82,3.53,1.4,5,1.81,1.2,4.52,1.88,6.31.26,1.06-.97,1.62-2.03,1.74-3.44.1-1.23-.29-2.43.85-3.34,1.2-.96,4,.54,5.52.46"/>
      <path class="cls-2" d="m38.32,23.08c0,2.65-1.67,4.92-4.05,5.9-.81.34-1.69.52-2.63.52s-1.83-.19-2.64-.52c-.12-.05-.25-.11-.37-.17-1.63-.78-2.87-2.2-3.39-3.91-.19-.57-.28-1.19-.28-1.83,0-2.57,1.57-4.79,3.84-5.81.86-.4,1.83-.62,2.85-.62.67,0,1.31.1,1.92.27,2.75.79,4.75,3.24,4.75,6.15Z"/>
      <path class="cls-2" d="m23.57,32.23c1.23-1.37,2.84-2.42,4.66-3.02"/>
      <path class="cls-2" d="m29.01,28.98c-.26.06-.53.14-.78.23"/>
      <path class="cls-3" d="m3.01,8.52S.66,12.82.8,15.7s.2,4.84.2,4.84"/>
      <path class="cls-2" d="m20.9,39c0-2.58,1.01-4.96,2.67-6.77"/>
      <path class="cls-2" d="m34.27,28.98c4.64,1.14,8.11,5.22,8.11,10.02"/>
      <path class="cls-3" d="m17.03.5s8.67,1.37,11.72,4.87c3.05,3.51,2.81,4.15,2.81,4.15"/>
      <path class="cls-3" d="m13.52,33.06s.64.06,3.51.5,4.66-1.36,5.97-1.34,1.4-1.12,3.56-2.31l2.16-1.19s-1.68-1.41-2.6-2.03-.87-1.78-.87-1.78"/>
      <path class="cls-1" d="m33.57,16.93c-.61-.18-1.25-.27-1.92-.27-1.02,0-1.99.22-2.85.62-2.27,1.02-3.84,3.24-3.84,5.81,0,.63.1,1.25.28,1.83.52,1.71,1.76,3.12,3.39,3.91-.13.13-.27.26-.41.4-1.82.59-3.42,1.65-4.66,3.02-2,.86-4.21,1.34-6.53,1.34C7.9,33.57.5,26.17.5,17.03c0-2.48.55-4.82,1.52-6.93.43-.93.94-1.82,1.53-2.64,1.16-1.62,2.59-3.02,4.24-4.14,2.64-1.78,5.82-2.82,9.24-2.82,9.1,0,16.48,7.35,16.53,16.43Z"/>
      <circle class="cls-2" cx="29" cy="22" r="1.5"/>
      <circle class="cls-2" cx="34" cy="22" r="1.5"/>
      <line class="cls-2" x1="30.5" y1="22" x2="32.5" y2="22"/>
    </g>
  </g>
</svg>