<?xml version="1.0" encoding="UTF-8"?>
<svg id="_레이어_2" data-name="레이어 2" xmlns="http://www.w3.org/2000/svg" viewBox="0 0 39.64 43.5">
  <defs>
    <style>
      .cls-1 {
        stroke-linecap: round;
        stroke-linejoin: round;
      }

      .cls-1, .cls-2 {
        fill: none;
        stroke: #000;
      }

      .cls-3 {
        fill: #84614b;
      }

      .cls-2 {
        stroke-miterlimit: 10;
      }
    </style>
  </defs>
  <g id="_레이어_1-2" data-name="레이어 1">
    <g>
      <g>
        <path class="cls-1" d="m19.41,18.67v23.92c-.95-.61-3.97-2.39-8.37-2.39-1.18,0-4.85.13-8.37,2.39v-22.98c0-.6.33-1.16.86-1.45,1.41-.77,4.03-1.88,7.51-1.88,1.18,0,4.85.13,8.37,2.39Z"/>
        <path class="cls-1" d="m36.92,19.61v22.98c-.95-.61-3.97-2.39-8.37-2.39-1.18,0-4.85.13-8.37,2.39v-23.92c.94-.61,3.96-2.39,8.37-2.39,1.08,0,4.26.11,7.5,1.88.53.29.87.85.87,1.46Z"/>
        <path class="cls-2" d="m39.14,20.24v21.67c0,.6-.49,1.09-1.09,1.09H1.59c-.6,0-1.09-.49-1.09-1.09v-21.67c0-.6.49-1.09,1.09-1.09h0c.6,0,1.09.49,1.09,1.09v20.51c0,.8.83,1.32,1.55.98,2.99-1.43,5.81-1.53,6.82-1.53,2.98,0,5.33.82,6.83,1.54.72.34,1.54-.19,1.54-.98v-21.59h.77v21.59c0,.8.83,1.32,1.55.98,2.99-1.43,5.81-1.53,6.82-1.53,2.98,0,5.33.82,6.83,1.54.72.34,1.54-.19,1.54-.98v-20.51c0-.6.49-1.09,1.09-1.09h.05c.6,0,1.09.49,1.09,1.09Z"/>
        <path class="cls-1" d="m5.43,22.78c.83-.51,2.89-1.64,5.76-1.64,2.88,0,4.95,1.13,5.78,1.64"/>
        <path class="cls-1" d="m5.43,26.88c.83-.51,2.89-1.64,5.76-1.64,2.88,0,4.95,1.13,5.78,1.64"/>
        <path class="cls-1" d="m5.43,31.16c.83-.51,2.89-1.64,5.76-1.64,2.88,0,4.95,1.13,5.78,1.64"/>
        <path class="cls-1" d="m5.43,35.44c.83-.51,2.89-1.64,5.76-1.64,2.88,0,4.95,1.13,5.78,1.64"/>
        <path class="cls-1" d="m22.74,22.78c.83-.51,2.89-1.64,5.76-1.64,2.88,0,4.95,1.13,5.78,1.64"/>
        <path class="cls-1" d="m22.74,26.88c.83-.51,2.89-1.64,5.76-1.64,2.88,0,4.95,1.13,5.78,1.64"/>
        <path class="cls-1" d="m22.74,31.16c.83-.51,2.89-1.64,5.76-1.64,2.88,0,4.95,1.13,5.78,1.64"/>
        <path class="cls-1" d="m22.74,35.44c.83-.51,2.89-1.64,5.76-1.64,2.88,0,4.95,1.13,5.78,1.64"/>
      </g>
      <g>
        <rect class="cls-3" x="10.34" y="0" width="20.87" height="10.98" rx="4" ry="4"/>
        <polyline class="cls-3" points="19.43 15.28 24 8 16.93 6.59"/>
      </g>
    </g>
  </g>
</svg>