<?xml version="1.0" encoding="UTF-8"?>
<svg id="_레이어_2" data-name="레이어 2" xmlns="http://www.w3.org/2000/svg" viewBox="0 0 44.13 35.95">
  <defs>
    <style>
      .cls-1, .cls-2, .cls-3 {
        stroke-linejoin: round;
      }

      .cls-1, .cls-2, .cls-3, .cls-4, .cls-5, .cls-6 {
        fill: none;
      }

      .cls-1, .cls-2, .cls-4, .cls-5 {
        stroke-linecap: round;
      }

      .cls-1, .cls-3, .cls-5, .cls-6 {
        stroke: #000;
      }

      .cls-2, .cls-4, .cls-7 {
        stroke: #84614b;
      }

      .cls-3 {
        stroke-linecap: square;
      }

      .cls-4, .cls-5, .cls-7, .cls-6 {
        stroke-miterlimit: 10;
      }

      .cls-7 {
        fill: #84614b;
      }
    </style>
  </defs>
  <g id="_레이어_1-2" data-name="레이어 1">
    <g>
      <g>
        <g>
          <path class="cls-1" d="m6.62,11.28l-5.43,2.69c-.28.13-.61-.06-.64-.37-.07-.7-.12-1.41.18-2.05.33-.72,1.02-1.22,1.69-1.61,1.03-.6,2.11-.38,2.92-.03.78.34,1.38.97,1.73,1.74l9.86,20.86s1.24,3.05,3.32,2.92c1.72-.11,15.15-6.68,19.77-8.96,1.19-.59,2.09-1.65,2.43-2.93.23-.88.34-1.89,0-2.75-.08-.2-.33-.28-.53-.19l-15.48,7.34s0,0-.01,0c-.11.04-2.38.95-2.41.97-.03.01-.04.04-.05.04-.39.38.21,1.44.38,2.12.16.67.07,1.66-1.04,3.13"/>
          <path class="cls-6" d="m2.42,9.94l.35-.18c2.33-1.16,15.62-7.74,18.4-8.86,3.06-1.24,4.22.77,4.22.77l7.31,14.41.65,1.29.33.65"/>
          <line class="cls-6" x1="36.17" y1="22.93" x2="35.08" y2="20.78"/>
        </g>
        <line class="cls-5" x1="11.97" y1="12.36" x2="15.37" y2="10.72"/>
        <line class="cls-5" x1="13.78" y1="16.12" x2="20.47" y2="12.9"/>
        <line class="cls-5" x1="15.59" y1="19.88" x2="16.64" y2="19.37"/>
        <line class="cls-2" x1="17.72" y1="9.59" x2="23.82" y2="6.65"/>
        <line class="cls-2" x1="22.35" y1="11.99" x2="25.63" y2="10.41"/>
        <line class="cls-2" x1="18.52" y1="18.46" x2="27.45" y2="14.16"/>
        <line class="cls-4" x1="17.4" y1="23.64" x2="24.09" y2="20.41"/>
        <line class="cls-1" x1="25.97" y1="19.51" x2="29.26" y2="17.92"/>
        <line class="cls-5" x1="19.21" y1="27.39" x2="20.27" y2="26.88"/>
        <line class="cls-2" x1="27.26" y1="23.51" x2="22.14" y2="25.98"/>
      </g>
      <g>
        <path class="cls-7" d="m40.37,13.51c-1.97,2.55-4.17,4.36-5.74,4.86l-2.03-1.59c.1-1.64,1.3-4.22,3.26-6.76,2.78-3.59,6.04-5.73,7.29-4.77,1.25.96,0,4.66-2.78,8.26Z"/>
        <path class="cls-6" d="m30.22,20.89c-.69,0-1.24.55-1.24,1.24,0,.18.03.34.1.5.08.19.21.35.36.48.21.17.48.26.77.26.69,0,1.24-.55,1.24-1.24s-.55-1.24-1.24-1.24Z"/>
        <path class="cls-6" d="m30.22,23.37c-.29,0-.56-.09-.77-.26-.16-.13-.28-.29-.36-.48-.07-.16-.1-.32-.1-.5,0-.69.55-1.24,1.24-1.24s1.24.55,1.24,1.24-.55,1.24-1.24,1.24Z"/>
        <path class="cls-3" d="m31.82,18.55l-1.19-.94c-.22-.18-.26-.51-.08-.74l.3-.4c.19-.22.51-.26.74-.08l.91.71,1.19.93.83.66,1.01.8c.23.18.27.51.09.73l-.31.4c-.06.07-.14.14-.23.17-.06.02-.13.03-.19.03-.11,0-.23-.03-.32-.1l-1.13-.89-.2-.16"/>
        <path class="cls-6" d="m33.25,19.66c.04.09.07.19.09.29l.19,2.6c.27,1.41-.72,2.02-1.86,2.33-1.06.27-2.19.68-3.28.72-.23.01-.46-.03-.65-.16-.07-.03-.15-.08-.2-.15-.13-.15-.19-.33-.22-.52-.08-.41-.07-.83-.06-1.26,0-.3.01-.6,0-.9-.05-1.01-.22-2.87.89-3.42.53-.28,1.31-.29,1.9-.41.41-.07.81-.15,1.22-.23.09-.02.19-.03.28-.03s.18.01.27.02"/>
        <path class="cls-6" d="m31.47,22.13c0,.69-.55,1.24-1.24,1.24-.29,0-.56-.09-.77-.26-.16-.13-.28-.29-.36-.48-.07-.16-.1-.32-.1-.5,0-.69.55-1.24,1.24-1.24s1.24.55,1.24,1.24Z"/>
        <polyline class="cls-6" points="29.45 23.11 27.74 25.44 27.73 25.45"/>
      </g>
    </g>
  </g>
</svg>