<?xml version="1.0" encoding="UTF-8"?>
<svg id="_레이어_2" data-name="레이어 2" xmlns="http://www.w3.org/2000/svg" viewBox="0 0 41.95 41.85">
  <defs>
    <style>
      .cls-1 {
        fill: #84614b;
      }

      .cls-2 {
        stroke: #84614b;
        stroke-width: 2px;
      }

      .cls-2, .cls-3 {
        fill: none;
        stroke-miterlimit: 10;
      }

      .cls-3 {
        stroke: #000;
      }
    </style>
  </defs>
  <g id="_레이어_1-2" data-name="레이어 1">
    <g>
      <path class="cls-3" d="m21.33,13.24c0,2.13-1.34,3.96-3.26,4.75-.65.27-1.36.42-2.12.42s-1.47-.15-2.12-.42c-1.92-.79-3.26-2.62-3.26-4.75,0-2.85,2.41-5.17,5.37-5.17s5.37,2.31,5.37,5.17Z"/>
      <path class="cls-3" d="m18.07,17.99c3.73.92,6.53,4.2,6.53,8.06"/>
      <path class="cls-3" d="m7.31,26.05c0-3.86,2.79-7.14,6.53-8.06"/>
      <ellipse class="cls-2" cx="15.72" cy="15.16" rx="14.72" ry="14.16"/>
      <line class="cls-2" x1="25.53" y1="25.95" x2="28.8" y2="29.09"/>
      <polygon class="cls-1" points="41.95 38.92 38.91 41.85 26.34 29.78 29.39 26.85 41.95 38.92"/>
    </g>
  </g>
</svg>