<?xml version="1.0" encoding="UTF-8"?>
<svg id="_레이어_2" data-name="레이어 2" xmlns="http://www.w3.org/2000/svg" viewBox="0 0 39.44 44.62">
  <defs>
    <style>
      .cls-1, .cls-2 {
        stroke-linecap: round;
        stroke-linejoin: round;
      }

      .cls-1, .cls-2, .cls-3 {
        fill: none;
        stroke: #000;
      }

      .cls-2, .cls-3 {
        stroke-width: .75px;
      }

      .cls-4 {
        fill: #84614b;
      }

      .cls-3 {
        stroke-miterlimit: 10;
      }
    </style>
  </defs>
  <g id="_레이어_1-2" data-name="레이어 1">
    <g>
      <g>
        <path class="cls-4" d="m27.48,8.6c.03.43-.37.8-.73,1.11-.34.29-.68.58-1.02.87-1,.85-2.01,1.7-3.01,2.55-.64.54-1.32,1.14-1.52,1.89-.11.43-.05.86,0,1.28.47,3.5.93,7.01,1.39,10.52-1.13,1.09-1.96,2.45-2.38,3.96-4.7,4.15-9.43,8.29-14.21,12.36-.39.33-.81.67-1.31.79-.64.15-1.27-.1-1.79-.41-1-.58-1.84-1.38-2.45-2.32-.31-.47-.56-1.04-.39-1.61.15-.48.57-.87.97-1.23,4.02-3.59,8.11-7.11,12.27-10.56.47-.39.96-.8,1.21-1.33.26-.55.22-1.15.16-1.72-.33-3.79-.8-7.55-1.41-11.29-.04-.27-.08-.56.03-.83.1-.25.33-.45.55-.65,2.31-2.03,4.63-4.05,6.94-6.08.43-.37.85-.75,1.28-1.12.24-.21.52-.43.84-.41.22.02.39.16.55.3,1.17,1.05,2.34,2.1,3.52,3.15.24.22.49.46.51.78Z"/>
        <path class="cls-4" d="m31.79.87l-1.94,11.26c-.07-.01-.15-.01-.23-.01-.67,0-1.32.1-1.93.29h0l-1.83-1.72s-.08-.08-.12-.11c-1.65-1.56-3.3-3.12-4.95-4.68-1.02-.96-2.03-1.92-3.05-2.88-.49-.45-.15-1.27.56-1.36L30.89,0c.55-.07.99.35.9.86Z"/>
      </g>
      <g>
        <path class="cls-1" d="m35.7,18.6c0,2.56-1.48,4.76-3.63,5.82-.86.31-1.83.48-2.85.48s-1.99-.17-2.85-.48c-2.15-1.06-3.63-3.26-3.63-5.82,0-2.9,1.91-5.36,4.54-6.19h0c.61-.19,1.26-.29,1.93-.29.08,0,.16,0,.23.01,3.47.12,6.25,2.97,6.25,6.47Z"/>
        <path class="cls-1" d="m32.07,24.42c-.86.43-1.83.66-2.85.66s-1.99-.23-2.85-.66c.86.31,1.83.48,2.85.48s1.99-.17,2.85-.48Z"/>
        <path class="cls-1" d="m32.07,24.42c3.98,1.13,6.87,4.56,6.87,8.63v11.07"/>
        <path class="cls-1" d="m19.81,30.78c.42-1.51,1.25-2.87,2.38-3.96"/>
        <path class="cls-1" d="m19.5,44.12v-11.07c0-.78.11-1.54.31-2.27"/>
        <path class="cls-1" d="m26.37,24.42c-1.61.45-3.04,1.29-4.18,2.4"/>
        <line class="cls-1" x1="24.36" y1="32.37" x2="24.36" y2="43.71"/>
        <line class="cls-1" x1="34.08" y1="32.37" x2="34.08" y2="43.71"/>
        <line class="cls-2" x1="25.99" y1="15.85" x2="27.97" y2="16.92"/>
        <circle cx="27.11" cy="19.05" r=".53"/>
        <line class="cls-2" x1="32.5" y1="15.85" x2="30.52" y2="16.92"/>
        <circle cx="31.38" cy="19.05" r=".53"/>
        <g>
          <path class="cls-3" d="m27.64,21.18s0,1.07,1.6,1.07"/>
          <path class="cls-3" d="m30.84,21.18s0,1.07-1.6,1.07"/>
        </g>
      </g>
    </g>
  </g>
</svg>