<?xml version="1.0" encoding="UTF-8"?>
<svg id="_레이어_2" data-name="레이어 2" xmlns="http://www.w3.org/2000/svg" viewBox="0 0 42 44.67">
  <defs>
    <style>
      .cls-1 {
        fill: none;
        stroke: #000;
        stroke-linecap: round;
        stroke-linejoin: round;
      }

      .cls-2 {
        fill: #84614b;
      }
    </style>
  </defs>
  <g id="_레이어_1-2" data-name="레이어 1">
    <g>
      <path class="cls-2" d="m42,20.5c0,8.64-5.47,16.03-13.22,19.04l.54-15.46-3.51-14.13c-.23-.66-.39-1.69-.91-2.17-.38-.35-.86-.52-1.33-.52-.85,0-1.67.53-1.84,1.44-.05.27-.06.55-.03.84l.44,1.96c.36,1.55.51,3.15.45,4.74l-.13,3.6c-.65.61-1.02,1.47-1.02,2.37l.2,18.77c-.21.02-.43.02-.64.02s-.43,0-.64-.02l.2-18.77c0-.9-.37-1.76-1.02-2.37l-.13-3.6c-.06-1.59.09-3.19.45-4.74l.44-1.96c.03-.29.02-.57-.03-.84-.17-.91-.99-1.44-1.84-1.44-.47,0-.95.17-1.33.52-.52.48-.68,1.51-.91,2.17l-3.51,14.13.54,15.46C5.47,36.53,0,29.14,0,20.5,0,9.18,9.4,0,21,0s21,9.18,21,20.5Z"/>
      <path class="cls-1" d="m16.85,28.94l.79-6.04c.09-1.4-.22-2.28,1.1-2.77l.8-.29"/>
      <path class="cls-1" d="m22.46,19.84l.8.29c1.32.49,1.01,1.37,1.1,2.77l.79,6.04"/>
      <path class="cls-1" d="m13.24,40.07l-.24,3.93c2.54-.15,4.6.22,7.14.16l.15-1.03c.02-.2.05-.54.06-.75v-1.4s.21-18.77.21-18.77c0-.9-.37-1.76-1.02-2.37l-.13-3.6c-.06-1.59.09-3.19.45-4.74l.44-1.96c.03-.29.02-.57-.03-.84-.17-.91-.99-1.44-1.84-1.44-.47,0-.95.17-1.33.52-.52.48-.68,1.51-.91,2.17l-3.51,14.13.54,15.46.02.53Z"/>
      <path class="cls-1" d="m22.46,19.84c-.65.61-1.02,1.47-1.02,2.37l.2,18.77v1.4c.02.21.05.55.07.75l.14.99c2.52-.04,4.63-.1,7.15-.12l-.24-3.93.02-.53.54-15.46-3.51-14.13c-.23-.66-.39-1.69-.91-2.17-.38-.35-.86-.52-1.33-.52-.85,0-1.67.53-1.84,1.44-.05.27-.06.55-.03.84l.44,1.96c.36,1.55.51,3.15.45,4.74l-.13,3.6Z"/>
    </g>
  </g>
</svg>